<svg width="439" height="85" viewBox="0 0 439 85" fill="none" xmlns="http://www.w3.org/2000/svg">
<path d="M33.3877 67.0675C28.6735 67.0675 24.2874 66.2307 20.2296 64.557C16.1717 62.8235 12.6211 60.4624 9.57771 57.4736C6.594 54.4251 4.23687 50.8685 2.50632 46.8038C0.835439 42.6793 0 38.256 0 33.5338C0 28.7518 0.835439 24.3284 2.50632 20.2637C4.23687 16.199 6.594 12.6723 9.57771 9.68356C12.6211 6.63504 16.1717 4.27393 20.2296 2.60023C24.2874 0.866754 28.6735 1.52588e-05 33.3877 1.52588e-05C36.7295 1.52588e-05 39.8325 0.41844 42.6969 1.25529C45.5612 2.09214 48.1869 3.28764 50.5739 4.84179C52.9608 6.39594 55.139 8.27885 57.1082 10.4905L50.2158 17.2152C48.7837 15.4817 47.2321 14.0471 45.5612 12.9114C43.8904 11.7159 42.0405 10.8193 40.0115 10.2215C38.0423 9.62379 35.8642 9.32491 33.4772 9.32491C29.1807 9.32491 25.2422 10.3411 21.6617 12.3734C18.0813 14.346 15.2169 17.1255 13.0686 20.712C10.9801 24.2985 9.93575 28.5725 9.93575 33.5338C9.93575 38.4353 10.9801 42.7092 13.0686 46.3555C15.2169 49.942 18.0813 52.7514 21.6617 54.7838C25.2422 56.7563 29.1807 57.7426 33.4772 57.7426C37.356 57.7426 40.7873 56.9357 43.771 55.3218C46.8144 53.7078 49.4997 51.4962 51.827 48.6867L58.8984 55.5011C56.9292 57.8323 54.6317 59.8646 52.0061 61.5981C49.3804 63.3316 46.516 64.6765 43.413 65.6329C40.3099 66.5893 36.9682 67.0675 33.3877 67.0675Z" fill="#E7E7E7"/>
<path d="M86.8637 67.0675C82.1495 67.0675 78.0021 65.9916 74.4216 63.8397C70.8412 61.6878 68.0365 58.7887 66.0076 55.1424C63.9787 51.4364 62.9642 47.3119 62.9642 42.769C62.9642 38.2261 63.9787 34.1315 66.0076 30.4853C68.0365 26.7792 70.8412 23.8502 74.4216 21.6983C78.0021 19.5464 82.1495 18.4705 86.8637 18.4705C91.5183 18.4705 95.6358 19.5763 99.2163 21.788C102.797 23.9399 105.601 26.839 107.63 30.4853C109.659 34.1315 110.674 38.2261 110.674 42.769C110.674 47.3119 109.659 51.4364 107.63 55.1424C105.601 58.7887 102.797 61.6878 99.2163 63.8397C95.6358 65.9916 91.5183 67.0675 86.8637 67.0675ZM86.8637 58.1909C89.37 58.1909 91.6973 57.5932 93.8456 56.3977C95.9939 55.1424 97.7244 53.3791 99.0373 51.1076C100.41 48.7764 101.096 45.9969 101.096 42.769C101.096 39.5412 100.41 36.7915 99.0373 34.5201C97.7244 32.1888 95.9939 30.4255 93.8456 29.23C91.6973 27.9747 89.37 27.3471 86.8637 27.3471C84.3574 27.3471 82.0003 27.9747 79.7923 29.23C77.6441 30.4255 75.8837 32.1888 74.5112 34.5201C73.1983 36.7915 72.5419 39.5412 72.5419 42.769C72.5419 45.9969 73.1983 48.7764 74.5112 51.1076C75.8837 53.3791 77.6739 55.1424 79.8818 56.3977C82.0898 57.5932 84.4171 58.1909 86.8637 58.1909Z" fill="#E7E7E7"/>
<path d="M117.525 65.6329V19.9051H126.655V26.6298H127.192C127.908 25.0756 128.923 23.7008 130.235 22.5053C131.608 21.3098 133.159 20.3534 134.89 19.6361C136.68 18.9188 138.53 18.5601 140.44 18.5601C141.693 18.5601 142.737 18.6498 143.573 18.8291C144.468 18.9487 145.273 19.1579 145.989 19.4568V29.499C144.856 29.0208 143.692 28.6322 142.498 28.3334C141.365 28.0345 140.171 27.885 138.918 27.885C136.65 27.885 134.621 28.5127 132.831 29.768C131.101 30.9634 129.728 32.5774 128.714 34.6097C127.699 36.6421 127.192 38.9135 127.192 41.4241V65.6329H117.525Z" fill="#E7E7E7"/>
<path d="M151.05 85V19.9051H160.18V26.0918H160.717C161.552 24.7767 162.656 23.5514 164.029 22.4156C165.461 21.2201 167.132 20.2637 169.041 19.5464C170.951 18.8291 173.069 18.4705 175.397 18.4705C179.574 18.4705 183.303 19.5165 186.586 21.6087C189.868 23.7008 192.463 26.57 194.373 30.2163C196.342 33.8625 197.327 38.0468 197.327 42.769C197.327 47.4912 196.342 51.6755 194.373 55.3218C192.463 58.968 189.868 61.8372 186.586 63.9293C183.303 66.0215 179.574 67.0675 175.397 67.0675C171.936 67.0675 168.922 66.2905 166.356 64.7363C163.79 63.1822 161.91 61.4487 160.717 59.5359H160.18L160.717 65.9019V85H151.05ZM173.964 58.1909C176.351 58.1909 178.589 57.5633 180.678 56.308C182.826 55.0528 184.527 53.2595 185.78 50.9283C187.093 48.5971 187.749 45.8773 187.749 42.769C187.749 39.6009 187.093 36.8812 185.78 34.6097C184.527 32.2785 182.826 30.4852 180.678 29.23C178.589 27.9747 176.351 27.3471 173.964 27.3471C171.578 27.3471 169.34 27.9747 167.251 29.23C165.163 30.4852 163.462 32.2785 162.149 34.6097C160.836 36.8812 160.18 39.6009 160.18 42.769C160.18 45.9371 160.836 48.6867 162.149 51.018C163.462 53.2894 165.163 55.0528 167.251 56.308C169.34 57.5633 171.578 58.1909 173.964 58.1909Z" fill="#E7E7E7"/>
<path d="M225.725 67.0675C221.011 67.0675 216.863 65.9916 213.283 63.8397C209.703 61.6878 206.898 58.7887 204.869 55.1424C202.84 51.4364 201.826 47.3119 201.826 42.769C201.826 38.2261 202.84 34.1315 204.869 30.4853C206.898 26.7792 209.703 23.8502 213.283 21.6983C216.863 19.5464 221.011 18.4705 225.725 18.4705C230.38 18.4705 234.497 19.5763 238.078 21.788C241.658 23.9399 244.463 26.839 246.492 30.4853C248.521 34.1315 249.535 38.2261 249.535 42.769C249.535 47.3119 248.521 51.4364 246.492 55.1424C244.463 58.7887 241.658 61.6878 238.078 63.8397C234.497 65.9916 230.38 67.0675 225.725 67.0675ZM225.725 58.1909C228.231 58.1909 230.559 57.5932 232.707 56.3977C234.855 55.1424 236.586 53.3791 237.899 51.1076C239.271 48.7764 239.957 45.9969 239.957 42.769C239.957 39.5412 239.271 36.7915 237.899 34.5201C236.586 32.1888 234.855 30.4255 232.707 29.23C230.559 27.9747 228.231 27.3471 225.725 27.3471C223.219 27.3471 220.862 27.9747 218.654 29.23C216.505 30.4255 214.745 32.1888 213.373 34.5201C212.06 36.7915 211.403 39.5412 211.403 42.769C211.403 45.9969 212.06 48.7764 213.373 51.1076C214.745 53.3791 216.535 55.1424 218.743 56.3977C220.951 57.5932 223.278 58.1909 225.725 58.1909Z" fill="#E7E7E7"/>
<path d="M256.386 65.6329V19.9051H265.516V26.6298H266.053C266.77 25.0756 267.784 23.7008 269.097 22.5053C270.469 21.3098 272.021 20.3534 273.751 19.6361C275.542 18.9188 277.392 18.5601 279.301 18.5601C280.554 18.5601 281.599 18.6498 282.434 18.8291C283.329 18.9487 284.135 19.1579 284.851 19.4568V29.499C283.717 29.0208 282.553 28.6322 281.36 28.3334C280.226 28.0345 279.033 27.885 277.779 27.885C275.512 27.885 273.483 28.5127 271.693 29.768C269.962 30.9634 268.59 32.5774 267.575 34.6097C266.561 36.6421 266.053 38.9135 266.053 41.4241V65.6329H256.386Z" fill="#E7E7E7"/>
<path d="M289.911 65.6329V19.9051H299.578V65.6329H289.911ZM294.745 13.1804C292.954 13.1804 291.403 12.5528 290.09 11.2975C288.837 9.98244 288.21 8.42829 288.21 6.63504C288.21 4.78201 288.837 3.25775 290.09 2.06225C291.403 0.806979 292.954 0.179343 294.745 0.179343C296.594 0.179343 298.146 0.806979 299.399 2.06225C300.652 3.25775 301.279 4.78201 301.279 6.63504C301.279 8.42829 300.652 9.98244 299.399 11.2975C298.146 12.5528 296.594 13.1804 294.745 13.1804Z" fill="#E7E7E7"/>
<path d="M304 65.6329L322.797 38.3755H323.782L335.687 19.9051H347.323L328.616 46.0865H328.168L315.368 65.6329H304ZM304.268 19.9051H315.457L328.436 39.0032H328.884L347.413 65.6329H336.134L323.155 46.1762H322.618L304.268 19.9051Z" fill="#E7E7E7"/>
<path d="M366.61 65.6329L390.957 1.43462H399.55L423.898 65.6329H415.573L397.939 17.6635L395.433 10.7595H395.075L392.569 17.6635L374.935 65.6329H366.61ZM394.359 47.9694V40.7964H409.128L411.724 47.9694H394.359ZM376.994 47.9694L379.589 40.7964H394.359V47.9694H376.994Z" fill="#E7E7E7"/>
<path d="M430.514 65.6329V1.43462H438.123V65.6329H430.514Z" fill="#E7E7E7"/>
</svg>
