<svg width="515" height="100" viewBox="0 0 515 100" fill="none" xmlns="http://www.w3.org/2000/svg">
<path d="M39.2462 78.8358C33.7048 78.8358 28.5491 77.8521 23.7792 75.8847C19.0093 73.8471 14.8357 71.0717 11.2583 67.5585C7.75104 63.9751 4.98031 59.7944 2.9461 55.0164C0.982033 50.1682 0 44.9687 0 39.4179C0 33.7968 0.982033 28.5973 2.9461 23.8194C4.98031 19.0415 7.75104 14.8959 11.2583 11.3827C14.8357 7.79927 19.0093 5.02386 23.7792 3.05647C28.5491 1.01882 33.7048 0 39.2462 0C43.1744 0 46.8219 0.491845 50.1889 1.47554C53.5559 2.45923 56.6422 3.8645 59.4481 5.69136C62.2539 7.51821 64.8142 9.73152 67.129 12.3313L59.0272 20.2359C57.3437 18.1983 55.5199 16.512 53.5559 15.177C51.5918 13.7717 49.4173 12.7177 47.0324 12.0151C44.7176 11.3125 42.1573 10.9611 39.3515 10.9611C34.301 10.9611 29.6714 12.1556 25.4627 14.5446C21.254 16.8633 17.887 20.1305 15.3618 24.3464C12.9067 28.5622 11.6792 33.586 11.6792 39.4179C11.6792 45.1795 12.9067 50.2034 15.3618 54.4895C17.887 58.7053 21.254 62.0077 25.4627 64.3966C29.6714 66.7153 34.301 67.8747 39.3515 67.8747C43.9109 67.8747 47.9442 66.9261 51.4515 65.029C55.0289 63.1319 58.1854 60.5321 60.9211 57.2297L69.2333 65.2398C66.9185 67.9801 64.2179 70.369 61.1315 72.4067C58.0451 74.4443 54.6782 76.0253 51.0306 77.1495C47.3831 78.2737 43.455 78.8358 39.2462 78.8358Z" fill="#1E1E1E"/>
<path d="M102.106 78.8358C96.5642 78.8358 91.6891 77.5711 87.4804 75.0416C83.2717 72.5121 79.9748 69.1043 77.5899 64.8182C75.205 60.4619 74.0125 55.6137 74.0125 50.2736C74.0125 44.9336 75.205 40.1205 77.5899 35.8345C79.9748 31.4781 83.2717 28.0352 87.4804 25.5057C91.6891 22.9762 96.5642 21.7115 102.106 21.7115C107.577 21.7115 112.417 23.0113 116.626 25.6111C120.834 28.1406 124.131 31.5484 126.516 35.8345C128.901 40.1205 130.094 44.9336 130.094 50.2736C130.094 55.6137 128.901 60.4619 126.516 64.8182C124.131 69.1043 120.834 72.5121 116.626 75.0416C112.417 77.5711 107.577 78.8358 102.106 78.8358ZM102.106 68.4017C105.052 68.4017 107.787 67.699 110.313 66.2938C112.838 64.8182 114.872 62.7454 116.415 60.0754C118.029 57.3351 118.835 54.0679 118.835 50.2736C118.835 46.4794 118.029 43.2473 116.415 40.5773C114.872 37.837 112.838 35.7642 110.313 34.3589C107.787 32.8834 105.052 32.1456 102.106 32.1456C99.1595 32.1456 96.3888 32.8834 93.7934 34.3589C91.2682 35.7642 89.1989 37.837 87.5856 40.5773C86.0424 43.2473 85.2708 46.4794 85.2708 50.2736C85.2708 54.0679 86.0424 57.3351 87.5856 60.0754C89.1989 62.7454 91.3033 64.8182 93.8987 66.2938C96.494 67.699 99.2297 68.4017 102.106 68.4017Z" fill="#1E1E1E"/>
<path d="M138.147 77.1495V23.3978H148.879V31.3025H149.51C150.352 29.4756 151.545 27.8595 153.088 26.4543C154.701 25.049 156.525 23.9248 158.559 23.0816C160.663 22.2384 162.838 21.8169 165.083 21.8169C166.556 21.8169 167.783 21.9223 168.765 22.1331C169.817 22.2736 170.764 22.5195 171.606 22.8708V34.6751C170.273 34.113 168.906 33.6563 167.503 33.305C166.17 32.9537 164.767 32.778 163.294 32.778C160.628 32.778 158.243 33.5158 156.139 34.9913C154.105 36.3966 152.492 38.2937 151.299 40.6827C150.107 43.0716 149.51 45.7416 149.51 48.6927V77.1495H138.147Z" fill="#1E1E1E"/>
<path d="M177.554 99.9149V23.3978H188.286V30.6701H188.918C189.9 29.1243 191.197 27.6839 192.811 26.3489C194.494 24.9436 196.458 23.8194 198.703 22.9762C200.948 22.1331 203.438 21.7115 206.173 21.7115C211.084 21.7115 215.468 22.9411 219.326 25.4003C223.184 27.8595 226.235 31.2322 228.48 35.5183C230.794 39.8044 231.952 44.7228 231.952 50.2736C231.952 55.8245 230.794 60.7429 228.48 65.029C226.235 69.3151 223.184 72.6877 219.326 75.147C215.468 77.6062 211.084 78.8358 206.173 78.8358C202.105 78.8358 198.563 77.9224 195.546 76.0955C192.53 74.2687 190.321 72.231 188.918 69.9826H188.286L188.918 77.4657V99.9149H177.554ZM204.49 68.4017C207.296 68.4017 209.926 67.6639 212.381 66.1884C214.907 64.7128 216.906 62.6049 218.379 59.8646C219.922 57.1243 220.693 53.9274 220.693 50.2736C220.693 46.5497 219.922 43.3527 218.379 40.6827C216.906 37.9424 214.907 35.8345 212.381 34.3589C209.926 32.8834 207.296 32.1456 204.49 32.1456C201.684 32.1456 199.054 32.8834 196.599 34.3589C194.144 35.8345 192.144 37.9424 190.601 40.6827C189.058 43.3527 188.286 46.5497 188.286 50.2736C188.286 53.9976 189.058 57.2297 190.601 59.97C192.144 62.64 194.144 64.7128 196.599 66.1884C199.054 67.6639 201.684 68.4017 204.49 68.4017Z" fill="#1E1E1E"/>
<path d="M265.333 78.8358C259.791 78.8358 254.916 77.5711 250.708 75.0416C246.499 72.5121 243.202 69.1043 240.817 64.8182C238.432 60.4619 237.24 55.6137 237.24 50.2736C237.24 44.9336 238.432 40.1205 240.817 35.8345C243.202 31.4781 246.499 28.0352 250.708 25.5057C254.916 22.9762 259.791 21.7115 265.333 21.7115C270.804 21.7115 275.644 23.0113 279.853 25.6111C284.062 28.1406 287.359 31.5484 289.743 35.8345C292.128 40.1205 293.321 44.9336 293.321 50.2736C293.321 55.6137 292.128 60.4619 289.743 64.8182C287.359 69.1043 284.062 72.5121 279.853 75.0416C275.644 77.5711 270.804 78.8358 265.333 78.8358ZM265.333 68.4017C268.279 68.4017 271.015 67.699 273.54 66.2938C276.065 64.8182 278.099 62.7454 279.643 60.0754C281.256 57.3351 282.063 54.0679 282.063 50.2736C282.063 46.4794 281.256 43.2473 279.643 40.5773C278.099 37.837 276.065 35.7642 273.54 34.3589C271.015 32.8834 268.279 32.1456 265.333 32.1456C262.387 32.1456 259.616 32.8834 257.021 34.3589C254.496 35.7642 252.426 37.837 250.813 40.5773C249.27 43.2473 248.498 46.4794 248.498 50.2736C248.498 54.0679 249.27 57.3351 250.813 60.0754C252.426 62.7454 254.531 64.8182 257.126 66.2938C259.721 67.699 262.457 68.4017 265.333 68.4017Z" fill="#1E1E1E"/>
<path d="M301.374 77.1495V23.3978H312.106V31.3025H312.738C313.579 29.4756 314.772 27.8595 316.315 26.4543C317.928 25.049 319.752 23.9248 321.786 23.0816C323.891 22.2384 326.065 21.8169 328.31 21.8169C329.783 21.8169 331.011 21.9223 331.993 22.1331C333.045 22.2736 333.992 22.5195 334.833 22.8708V34.6751C333.501 34.113 332.133 33.6563 330.73 33.305C329.397 32.9537 327.994 32.778 326.521 32.778C323.856 32.778 321.471 33.5158 319.366 34.9913C317.332 36.3966 315.719 38.2937 314.526 40.6827C313.334 43.0716 312.738 45.7416 312.738 48.6927V77.1495H301.374Z" fill="#1E1E1E"/>
<path d="M340.782 77.1495V23.3978H352.145V77.1495H340.782ZM346.463 15.4931C344.359 15.4931 342.535 14.7554 340.992 13.2798C339.519 11.734 338.782 9.90718 338.782 7.79926C338.782 5.62109 339.519 3.82937 340.992 2.4241C342.535 0.948562 344.359 0.210795 346.463 0.210795C348.638 0.210795 350.462 0.948562 351.935 2.4241C353.408 3.82937 354.144 5.62109 354.144 7.79926C354.144 9.90718 353.408 11.734 351.935 13.2798C350.462 14.7554 348.638 15.4931 346.463 15.4931Z" fill="#1E1E1E"/>
<path d="M357.343 77.1495L379.438 45.1093H380.596L394.59 23.3978H408.268L386.277 54.1733H385.751L370.705 77.1495H357.343ZM357.658 23.3978H370.811L386.067 45.847H386.593L408.373 77.1495H395.116L379.859 54.2787H379.228L357.658 23.3978Z" fill="#1E1E1E"/>
<path d="M430.939 77.1495L459.558 1.68633H469.659L498.279 77.1495H488.493L467.765 20.7629L464.819 12.6475H464.398L461.452 20.7629L440.724 77.1495H430.939ZM463.557 56.3866V47.9549H480.918L483.969 56.3866H463.557ZM443.144 56.3866L446.196 47.9549H463.557V56.3866H443.144Z" fill="#1E1E1E"/>
<path d="M506.056 77.1495V1.68633H515V77.1495H506.056Z" fill="#1E1E1E"/>
</svg>
